<svg xmlns="http://www.w3.org/2000/svg" viewBox="0 0 512 512">
  <!-- AceHub v3 "negative-a": solid rounded shield/bud shell (rounded apex, no
       cusp); an implied letter A appears only in negative space — a soft
       counter hole plus a splayed arch notch rising from the bottom edge. -->
  <defs>
    <linearGradient id="g" gradientUnits="userSpaceOnUse" x1="108" y1="64" x2="404" y2="436">
      <stop offset="0" stop-color="#6366F1"/>
      <stop offset="1" stop-color="#22D3EE"/>
    </linearGradient>
  </defs>
  <path fill="url(#g)" fill-rule="evenodd" d="
    M222 98
    C 150 176, 108 218, 108 296
    C 108 380, 172 436, 256 436
    C 340 436, 404 380, 404 296
    C 404 218, 362 176, 290 98
    C 272 74, 240 74, 222 98
    Z
    M242 190
    C 230 214, 218 240, 218 262
    C 218 286, 234 298, 256 298
    C 278 298, 294 286, 294 262
    C 294 240, 282 214, 270 190
    C 262 176, 250 176, 242 190
    Z
    M204 444
    C 210 384, 230 344, 256 318
    C 282 344, 302 384, 308 444
    Z"/>
</svg>
